<svg xmlns="http://www.w3.org/2000/svg" width="53" height="51" viewBox="0 0 53 51" fill="none">
<rect y="1" width="50" height="50" rx="12" fill="white"/>
<path d="M31 22C31 20.4087 30.3679 18.8826 29.2426 17.7574C28.1174 16.6321 26.5913 16 25 16C23.4087 16 21.8826 16.6321 20.7574 17.7574C19.6321 18.8826 19 20.4087 19 22C19 29 16 31 16 31H34C34 31 31 29 31 22Z" stroke="#4F5353" stroke-width="2" stroke-linecap="round" stroke-linejoin="round"/>
<path d="M26.7295 35C26.5537 35.3031 26.3014 35.5547 25.9978 35.7295C25.6941 35.9044 25.3499 35.9965 24.9995 35.9965C24.6492 35.9965 24.3049 35.9044 24.0013 35.7295C23.6977 35.5547 23.4453 35.3031 23.2695 35" stroke="#4F5353" stroke-width="2" stroke-linecap="round" stroke-linejoin="round"/>

</svg>