<svg width="178" height="30" viewBox="0 0 178 30" fill="none" xmlns="http://www.w3.org/2000/svg">
<path fill-rule="evenodd" clip-rule="evenodd" d="M20.0815 26.0234C19.5162 26.4459 19.2177 26.6676 18.9204 26.8912C15.3878 29.5519 11.5231 30.175 7.43842 28.4911C3.39185 26.8231 0.972405 23.7637 0.189609 19.3881C-1.03222 12.5582 3.82294 6.47878 9.80626 5.64161C12.4444 5.27237 14.9556 5.58591 17.3131 6.89737C17.9728 7.26423 18.4523 7.76518 18.3356 8.5347C18.0308 10.5401 17.6568 12.5355 17.2992 14.5326C17.273 14.6786 17.1587 14.8087 17.036 15.0387C16.6541 14.675 16.3378 14.3587 16.0063 14.0603C14.5979 12.7914 12.9601 12.1114 11.059 12.38C8.97463 12.6748 7.48724 14.1104 7.02757 16.1675C6.52899 18.3977 7.35029 20.1878 9.06474 21.549C10.7526 22.8888 12.6012 22.7555 14.4066 21.7607C15.7943 20.996 16.7824 19.8162 17.5084 18.4196C19.2074 15.1493 19.8302 11.6096 19.9965 7.97885C20.0426 6.97615 20.4169 6.66221 21.3676 6.70359C22.6752 6.76049 23.9871 6.73702 25.2967 6.71195C26.0687 6.69723 26.4558 6.99644 26.455 7.80178C26.4478 14.6623 26.4486 21.5232 26.4526 28.3841C26.453 29.0701 26.1596 29.4238 25.4535 29.4198C24.0125 29.4114 22.5716 29.4126 21.1306 29.4186C20.4006 29.4214 20.0422 29.1003 20.0755 28.3399C20.1045 27.6718 20.0815 27.0018 20.0815 26.0234Z" fill="#00989B"/>
<path fill-rule="evenodd" clip-rule="evenodd" d="M57.4572 15.2024C56.1425 13.7067 54.7194 12.6762 52.8244 12.4378C50.8392 12.1884 48.8834 13.1194 47.9172 14.8375C46.8474 16.7395 47.0653 18.9024 48.5091 20.7212C49.7761 22.3172 51.6772 22.9319 53.5988 22.3406C55.4943 21.7581 56.7983 20.459 57.7291 18.766C59.1062 16.2604 59.8556 13.5551 60.1708 10.7205C60.2316 10.1754 60.3125 9.63268 60.4066 8.91687C62.002 10.2598 62.8884 11.8685 63.4941 13.6415C65.7603 20.2716 61.8662 27.3744 55.062 29.0591C48.2657 30.7418 41.5472 26.2535 40.4731 19.3127C39.2917 11.6791 45.493 4.91206 53.1673 5.604C54.6881 5.74127 56.1687 6.43878 57.6422 6.95246C58.3921 7.21388 58.7259 7.83778 58.6838 8.66699C58.5727 10.8574 58.2726 13.0056 57.4572 15.2024Z" fill="#00989B"/>
<path fill-rule="evenodd" clip-rule="evenodd" d="M74.7239 13.2591C74.4932 11.6285 74.3106 10.3345 74.1276 9.04099C73.9875 8.05261 74.4682 7.44941 75.2963 6.98467C79.5902 4.57621 85.8136 5.5785 89.1397 9.21765C90.8736 11.1144 91.7958 13.2825 91.7525 15.9031C91.6858 19.9397 91.7382 23.9784 91.733 28.0166C91.7311 29.3201 91.6215 29.4227 90.3381 29.4287C89.3882 29.4327 88.4359 29.3861 87.4896 29.4411C86.5444 29.4964 86.211 29.1028 86.2177 28.1773C86.2435 24.5004 86.2435 20.8234 86.2098 17.1469C86.2026 16.3356 86.1233 15.496 85.8974 14.7217C85.2833 12.6165 83.5244 11.3277 81.3483 11.0985C78.9257 10.8434 76.7249 11.2242 74.7239 13.2591Z" fill="#00989B"/>
<path fill-rule="evenodd" clip-rule="evenodd" d="M73.0224 26.7323C71.0876 24.9187 69.9424 22.9484 69.0215 20.8355C67.7925 18.0141 66.9363 15.1226 67.2149 11.9728C67.3388 10.5722 67.2467 9.15175 67.2348 7.74081C67.2288 7.0433 67.5333 6.71464 68.2407 6.72658C69.2878 6.74369 70.3362 6.74488 71.3838 6.72499C71.9474 6.71424 72.1705 6.93269 72.2582 7.51321C72.5849 9.67935 72.9775 11.8355 73.3427 13.9957C73.3697 14.1557 73.39 14.3204 73.3848 14.4819C73.2665 18.0785 73.1431 21.6755 73.024 25.2725C73.0117 25.658 73.0224 26.0444 73.0224 26.7323Z" fill="#00989B"/>
<path fill-rule="evenodd" clip-rule="evenodd" d="M30.3535 7.68729C33.1743 8.9892 33.9015 8.9888 36.8862 7.62402C36.6437 14.5299 35.1035 20.817 30.3535 26.3326V7.68729Z" fill="#00989B"/>
<path fill-rule="evenodd" clip-rule="evenodd" d="M36.8541 3.30818C36.8549 5.18067 35.4449 6.60116 33.5733 6.61349C31.6393 6.62583 30.2452 5.2129 30.2619 3.25725C30.2777 1.36645 31.6762 -0.00867097 33.5745 4.11634e-05C35.4382 0.0088364 36.8533 1.43609 36.8541 3.30818Z" fill="#00989B"/>
<path fill-rule="evenodd" clip-rule="evenodd" d="M30.2793 28.5872C33.7935 26.4143 35.2135 22.8269 36.7207 19.2124C36.7798 19.3123 36.8465 19.372 36.8465 19.432C36.8533 22.2849 36.8656 25.1378 36.8489 27.9904C36.843 29.0237 36.4432 29.4073 35.4123 29.4232C34.1695 29.4423 32.9242 29.4673 31.6841 29.4077C31.2221 29.3854 30.7719 29.1311 30.3162 28.9827C30.3039 28.851 30.2916 28.7193 30.2793 28.5872Z" fill="#00989B"/>
<path fill-rule="evenodd" clip-rule="evenodd" d="M67.2409 21.4966C68.2027 22.9951 69.2622 24.7812 70.4669 26.4623C71.0247 27.2402 71.8734 27.8068 72.5744 28.4856C72.7197 28.6265 72.9162 28.8783 72.8741 29.0092C72.8205 29.1771 72.5502 29.3817 72.3699 29.3848C70.8691 29.4111 69.3654 29.4306 67.8673 29.3526C67.645 29.3411 67.2742 28.8131 67.2683 28.5178C67.2198 26.0481 67.2409 23.5768 67.2409 21.4966Z" fill="#00989B"/>
<path fill-rule="evenodd" clip-rule="evenodd" d="M106.895 23.3982C107.675 23.3982 108.371 23.2152 108.984 22.8491C109.597 22.4831 110.08 21.9865 110.433 21.3598C110.786 20.7335 110.962 20.0229 110.962 19.2287C110.962 18.4345 110.786 17.727 110.433 17.1063C110.08 16.486 109.597 15.993 108.984 15.6265C108.371 15.2605 107.675 15.0774 106.895 15.0774C106.127 15.0774 105.434 15.2605 104.815 15.6265C104.196 15.993 103.707 16.486 103.348 17.1063C102.989 17.727 102.81 18.4345 102.81 19.2287C102.81 20.0229 102.989 20.7335 103.348 21.3598C103.707 21.9865 104.196 22.4831 104.815 22.8491C105.434 23.2152 106.127 23.3982 106.895 23.3982ZM106.895 24.4407C105.905 24.4407 105.016 24.2143 104.23 23.7611C103.444 23.3083 102.825 22.688 102.373 21.8993C101.921 21.1119 101.695 20.2214 101.695 19.2287C101.695 18.2359 101.921 17.3482 102.373 16.5668C102.825 15.7849 103.444 15.1674 104.23 14.7146C105.016 14.2618 105.905 14.035 106.895 14.035C107.786 14.035 108.588 14.2275 109.3 14.6119C110.012 14.9971 110.566 15.5119 110.962 16.1569V10.3493C110.962 10.1758 111.015 10.0393 111.12 9.93983C111.225 9.84035 111.358 9.79102 111.519 9.79102C111.692 9.79102 111.828 9.84035 111.928 9.93983C112.027 10.0393 112.076 10.1758 112.076 10.3493V19.3401C112.064 20.3082 111.828 21.1768 111.37 21.9463C110.912 22.7158 110.296 23.3238 109.523 23.7706C108.749 24.2171 107.873 24.4407 106.895 24.4407Z" fill="#00989B"/>
<path fill-rule="evenodd" clip-rule="evenodd" d="M118.947 24.3285C118.786 24.3285 118.653 24.2759 118.548 24.1705C118.443 24.065 118.39 23.9314 118.39 23.7702V14.7046C118.39 14.5311 118.443 14.3946 118.548 14.2951C118.653 14.1961 118.786 14.1463 118.947 14.1463C119.121 14.1463 119.256 14.1961 119.356 14.2951C119.454 14.3946 119.504 14.5311 119.504 14.7046V23.7702C119.504 23.9314 119.454 24.065 119.356 24.1705C119.256 24.2759 119.121 24.3285 118.947 24.3285ZM118.928 12.0057C118.693 12.0057 118.492 11.9217 118.325 11.7542C118.158 11.5871 118.074 11.3794 118.074 11.1307C118.074 10.8454 118.164 10.6313 118.343 10.4885C118.523 10.346 118.724 10.2744 118.947 10.2744C119.157 10.2744 119.352 10.346 119.532 10.4885C119.711 10.6313 119.801 10.8454 119.801 11.1307C119.801 11.3794 119.718 11.5871 119.551 11.7542C119.384 11.9217 119.176 12.0057 118.928 12.0057Z" fill="#00989B"/>
<path fill-rule="evenodd" clip-rule="evenodd" d="M130.461 23.3979C131.253 23.3979 131.956 23.2213 132.569 22.8675C133.182 22.5138 133.662 22.0236 134.009 21.3969C134.355 20.7702 134.528 20.0536 134.528 19.2467C134.528 18.4278 134.355 17.7048 134.009 17.0782C133.662 16.4515 133.182 15.9613 132.569 15.6075C131.956 15.2538 131.253 15.0772 130.461 15.0772C129.669 15.0772 128.963 15.2538 128.344 15.6075C127.725 15.9613 127.243 16.4515 126.896 17.0782C126.549 17.7048 126.376 18.4278 126.376 19.2467C126.376 20.0536 126.549 20.7702 126.896 21.3969C127.243 22.0236 127.725 22.5138 128.344 22.8675C128.963 23.2213 129.669 23.3979 130.461 23.3979ZM130.536 28.2192C129.508 28.2192 128.632 28.0266 127.908 27.6423C127.184 27.2571 126.586 26.7669 126.116 26.1717C126.017 26.0471 125.967 25.917 125.967 25.7805C125.967 25.644 126.029 25.5322 126.153 25.4455C126.277 25.346 126.422 25.3086 126.59 25.3337C126.757 25.3584 126.883 25.4391 126.97 25.5756C127.354 26.0348 127.843 26.4164 128.437 26.7207C129.031 27.0243 129.731 27.1767 130.536 27.1767C131.303 27.1767 131.987 26.9905 132.588 26.6181C133.188 26.2461 133.662 25.734 134.009 25.0826C134.355 24.4309 134.528 23.7019 134.528 22.895V19.9354L135.03 19.2467H135.643V22.895C135.643 23.9005 135.42 24.8065 134.974 25.613C134.528 26.4195 133.922 27.0558 133.154 27.5209C132.387 27.9865 131.513 28.2192 130.536 28.2192ZM130.461 24.4404C129.446 24.4404 128.549 24.2168 127.769 23.7704C126.989 23.3235 126.376 22.7092 125.93 21.9273C125.484 21.1454 125.262 20.2522 125.262 19.2467C125.262 18.2293 125.491 17.3296 125.949 16.5478C126.407 15.7659 127.029 15.1516 127.815 14.7047C128.601 14.2579 129.483 14.0347 130.461 14.0347C131.476 14.0347 132.371 14.2579 133.145 14.7047C133.919 15.1516 134.528 15.7659 134.974 16.5478C135.42 17.3296 135.643 18.2293 135.643 19.2467L134.993 19.9912C134.993 20.8602 134.801 21.6293 134.417 22.2997C134.033 22.9698 133.501 23.4942 132.82 23.8722C132.139 24.2514 131.353 24.4404 130.461 24.4404Z" fill="#00989B"/>
<path fill-rule="evenodd" clip-rule="evenodd" d="M141.957 24.3285C141.796 24.3285 141.663 24.2759 141.558 24.1705C141.452 24.065 141.4 23.9314 141.4 23.7702V14.7046C141.4 14.5311 141.452 14.3946 141.558 14.2951C141.663 14.1961 141.796 14.1463 141.957 14.1463C142.13 14.1463 142.266 14.1961 142.365 14.2951C142.464 14.3946 142.514 14.5311 142.514 14.7046V23.7702C142.514 23.9314 142.464 24.065 142.365 24.1705C142.266 24.2759 142.13 24.3285 141.957 24.3285ZM141.938 12.0057C141.703 12.0057 141.502 11.9217 141.335 11.7542C141.168 11.5871 141.084 11.3794 141.084 11.1307C141.084 10.8454 141.173 10.6313 141.353 10.4885C141.533 10.346 141.734 10.2744 141.957 10.2744C142.167 10.2744 142.362 10.346 142.542 10.4885C142.721 10.6313 142.811 10.8454 142.811 11.1307C142.811 11.3794 142.727 11.5871 142.561 11.7542C142.394 11.9217 142.186 12.0057 141.938 12.0057Z" fill="#00989B"/>
<path fill-rule="evenodd" clip-rule="evenodd" d="M152.987 24.3287C152.306 24.3164 151.699 24.1584 151.167 23.854C150.635 23.55 150.22 23.1283 149.923 22.5883C149.626 22.0488 149.477 21.4372 149.477 20.7548V11.4847C149.477 11.3112 149.53 11.1715 149.636 11.0657C149.74 10.9606 149.873 10.9077 150.035 10.9077C150.208 10.9077 150.347 10.9606 150.452 11.0657C150.557 11.1715 150.611 11.3112 150.611 11.4847V20.7548C150.611 21.4746 150.833 22.0611 151.279 22.5139C151.724 22.9671 152.3 23.1931 153.006 23.1931H153.414C153.588 23.1931 153.727 23.246 153.832 23.3515C153.937 23.4573 153.99 23.5966 153.99 23.7705C153.99 23.9316 153.937 24.0653 153.832 24.1707C153.727 24.2762 153.588 24.3287 153.414 24.3287H152.987ZM148.029 15.5241C147.881 15.5241 147.76 15.4775 147.667 15.3844C147.574 15.2913 147.527 15.1704 147.527 15.0211C147.527 14.8723 147.574 14.7514 147.667 14.6587C147.76 14.5656 147.881 14.519 148.029 14.519H153.061C153.21 14.519 153.331 14.5656 153.424 14.6587C153.517 14.7514 153.563 14.8723 153.563 15.0211C153.563 15.1704 153.517 15.2913 153.424 15.3844C153.331 15.4775 153.21 15.5241 153.061 15.5241H148.029Z" fill="#00989B"/>
<path fill-rule="evenodd" clip-rule="evenodd" d="M168.177 24.3286C168.017 24.3286 167.883 24.2761 167.778 24.1706C167.673 24.0652 167.62 23.9315 167.62 23.7704V20.3636L167.973 19.2471H168.734V23.7704C168.734 23.9315 168.685 24.0652 168.586 24.1706C168.487 24.2761 168.351 24.3286 168.177 24.3286ZM163.554 23.3979C164.333 23.3979 165.029 23.2149 165.642 22.8488C166.255 22.4828 166.738 21.9862 167.091 21.3595C167.444 20.7332 167.62 20.0286 167.62 19.2471C167.62 18.4529 167.444 17.7423 167.091 17.1156C166.738 16.4889 166.255 15.9927 165.642 15.6262C165.029 15.2602 164.333 15.0772 163.554 15.0772C162.786 15.0772 162.092 15.2602 161.473 15.6262C160.854 15.9927 160.365 16.4889 160.006 17.1156C159.647 17.7423 159.468 18.4529 159.468 19.2471C159.468 20.0286 159.647 20.7332 160.006 21.3595C160.365 21.9862 160.854 22.4828 161.473 22.8488C162.092 23.2149 162.786 23.3979 163.554 23.3979ZM163.554 24.4404C162.562 24.4404 161.674 24.214 160.888 23.7608C160.102 23.308 159.483 22.6877 159.032 21.8995C158.579 21.1116 158.354 20.2271 158.354 19.2471C158.354 18.2539 158.579 17.3639 159.032 16.5756C159.483 15.7878 160.102 15.1675 160.888 14.7143C161.674 14.2615 162.562 14.0347 163.554 14.0347C164.544 14.0347 165.429 14.2615 166.209 14.7143C166.989 15.1675 167.605 15.7878 168.057 16.5756C168.508 17.3639 168.734 18.2539 168.734 19.2471L168.27 19.9916C168.27 20.8355 168.063 21.5923 167.648 22.2623C167.233 22.9328 166.673 23.4632 165.967 23.8539C165.262 24.245 164.457 24.4404 163.554 24.4404Z" fill="#00989B"/>
<mask id="mask0" mask-type="alpha" maskUnits="userSpaceOnUse" x="173" y="9" width="5" height="16">
<path d="M173.748 9.79053H177.091V24.3284H173.748V9.79053Z" fill="white"/>
</mask>
<g mask="url(#mask0)">
<path fill-rule="evenodd" clip-rule="evenodd" d="M176.162 24.3284C175.692 24.3284 175.274 24.1983 174.909 23.9377C174.544 23.6767 174.259 23.317 174.054 22.8578C173.85 22.399 173.748 21.8654 173.748 21.2571V10.3488C173.748 10.1753 173.8 10.0388 173.906 9.93934C174.011 9.83987 174.144 9.79053 174.305 9.79053C174.478 9.79053 174.615 9.83987 174.714 9.93934C174.813 10.0388 174.862 10.1753 174.862 10.3488V21.2571C174.862 21.828 174.983 22.2968 175.224 22.6624C175.466 23.0285 175.778 23.2115 176.162 23.2115H176.626C176.763 23.2115 176.874 23.2613 176.961 23.3603C177.047 23.4598 177.091 23.5963 177.091 23.7702C177.091 23.9313 177.041 24.065 176.942 24.1704C176.843 24.2759 176.707 24.3284 176.534 24.3284H176.162Z" fill="#00989B"/>
</g>
</svg>
